<svg id="_0367_ceo" xmlns="http://www.w3.org/2000/svg" xmlns:xlink="http://www.w3.org/1999/xlink" viewBox="0 0 500 500" data-imageid="ceo-88" imageName="CEO" class="illustrations_image" style="width: 188px;"><defs><style>.cls-1{fill:none;}.cls-1,.cls-2,.cls-3,.cls-4,.cls-5,.cls-6,.cls-7,.cls-8,.cls-9,.cls-10,.cls-11,.cls-12,.cls-13,.cls-14,.cls-15,.cls-16,.cls-17,.cls-18,.cls-19,.cls-20,.cls-21,.cls-22,.cls-23,.cls-24,.cls-25,.cls-26,.cls-27,.cls-28,.cls-29,.cls-30,.cls-31,.cls-32,.cls-33,.cls-34,.cls-35,.cls-36,.cls-37,.cls-38,.cls-39{stroke-width:0px;}.cls-2{fill:url(#linear-gradient);}.cls-3{opacity:.18;}.cls-3,.cls-25,.cls-34{isolation:isolate;}.cls-3,.cls-25,.cls-34,.cls-39{fill:#68e1fd;}.cls-4{fill:url(#linear-gradient-29);}.cls-5{fill:url(#linear-gradient-30);}.cls-6{fill:url(#linear-gradient-28);}.cls-7{fill:url(#linear-gradient-25);}.cls-8{fill:url(#linear-gradient-11);}.cls-9{fill:url(#linear-gradient-12);}.cls-10{fill:url(#linear-gradient-13);}.cls-11{fill:url(#linear-gradient-10);}.cls-12{fill:url(#linear-gradient-17);}.cls-13{fill:url(#linear-gradient-16);}.cls-14{fill:url(#linear-gradient-19);}.cls-15{fill:url(#linear-gradient-15);}.cls-16{fill:url(#linear-gradient-23);}.cls-17{fill:url(#linear-gradient-21);}.cls-18{fill:url(#linear-gradient-18);}.cls-19{fill:url(#linear-gradient-14);}.cls-20{fill:url(#linear-gradient-22);}.cls-21{fill:url(#linear-gradient-20);}.cls-22{fill:url(#linear-gradient-27);}.cls-23{fill:url(#linear-gradient-24);}.cls-24{fill:url(#linear-gradient-26);}.cls-25{opacity:.41;}.cls-26{fill:url(#linear-gradient-4);}.cls-27{fill:url(#linear-gradient-2);}.cls-28{fill:url(#linear-gradient-3);}.cls-29{fill:url(#linear-gradient-8);}.cls-30{fill:url(#linear-gradient-9);}.cls-31{fill:url(#linear-gradient-7);}.cls-32{fill:url(#linear-gradient-5);}.cls-33{fill:url(#linear-gradient-6);}.cls-34{opacity:.38;}.cls-35{fill:#3f3d56;}.cls-36{fill:#c14834;}.cls-37{fill:#fff;}.cls-38{fill:#ffaa71;}</style><linearGradient id="linear-gradient" x1="589.32" y1="2188.87" x2="598.17" y2="1981.39" gradientTransform="translate(-471.75 2239.91) scale(1 -1)" gradientUnits="userSpaceOnUse"><stop offset=".02" stop-color="#fff" stop-opacity="0"/><stop offset=".58" stop-color="#fff" stop-opacity=".39"/><stop offset="1" stop-color="#fff"/></linearGradient><linearGradient id="linear-gradient-2" x1="648.95" y1="2222.58" x2="661.68" y2="1923.66" xlink:href="#linear-gradient"/><linearGradient id="linear-gradient-3" x1="580.06" y1="2221.54" x2="593.05" y2="1916.78" xlink:href="#linear-gradient"/><linearGradient id="linear-gradient-4" x1="645.12" y1="2231.71" x2="658.14" y2="1926.23" gradientTransform="translate(-471 2246.87) scale(1 -1)" xlink:href="#linear-gradient"/><linearGradient id="linear-gradient-5" x1="576.32" y1="2228.79" x2="589.35" y2="1923.3" gradientTransform="translate(-471 2246.87) scale(1 -1)" xlink:href="#linear-gradient"/><linearGradient id="linear-gradient-6" x1="642.16" y1="2231.58" x2="655.17" y2="1926.11" gradientTransform="translate(-471 2246.87) scale(1 -1)" xlink:href="#linear-gradient"/><linearGradient id="linear-gradient-7" x1="762.24" y1="2222.07" x2="775.26" y2="1916.58" xlink:href="#linear-gradient"/><linearGradient id="linear-gradient-8" x1="824.37" y1="2210.96" x2="835.7" y2="1945.47" xlink:href="#linear-gradient"/><linearGradient id="linear-gradient-9" x1="758.65" y1="2228.9" x2="771.66" y2="1923.43" gradientTransform="translate(-471 2246.87) scale(1 -1)" xlink:href="#linear-gradient"/><linearGradient id="linear-gradient-10" x1="825.09" y1="2224.73" x2="838.11" y2="1919.29" xlink:href="#linear-gradient"/><linearGradient id="linear-gradient-11" x1="755.68" y1="2228.79" x2="768.69" y2="1923.3" gradientTransform="translate(-471 2246.87) scale(1 -1)" xlink:href="#linear-gradient"/><linearGradient id="linear-gradient-12" x1="821.51" y1="2231.58" x2="834.53" y2="1926.11" gradientTransform="translate(-471 2246.87) scale(1 -1)" xlink:href="#linear-gradient"/><linearGradient id="linear-gradient-13" x1="713.3" y1="1944.26" x2="718.76" y2="1694.47" gradientTransform="translate(-471 2246.87) scale(1 -1)" gradientUnits="userSpaceOnUse"><stop offset="0" stop-color="#231f20" stop-opacity="0"/><stop offset="1" stop-color="#231f20"/></linearGradient><linearGradient id="linear-gradient-14" x1="714.77" y1="1918.74" x2="716.08" y2="1858.97" xlink:href="#linear-gradient-13"/><linearGradient id="linear-gradient-15" x1="718.62" y1="1992.69" x2="710.52" y2="2056.33" xlink:href="#linear-gradient-13"/><linearGradient id="linear-gradient-16" x1="243.1" y1="320.22" x2="241.79" y2="249.41" gradientUnits="userSpaceOnUse"><stop offset="0" stop-color="#000"/><stop offset="1" stop-color="#000" stop-opacity="0"/></linearGradient><linearGradient id="linear-gradient-17" x1="237.32" y1="333.07" x2="249.05" y2="223.6" xlink:href="#linear-gradient-16"/><linearGradient id="linear-gradient-18" x1="713.27" y1="1977.77" x2="715.87" y2="1774.7" xlink:href="#linear-gradient-13"/><linearGradient id="linear-gradient-19" x1="795.08" y1="1933.75" x2="799.21" y2="1931.96" gradientTransform="translate(-471.75 2239.91) scale(1 -1)" xlink:href="#linear-gradient-13"/><linearGradient id="linear-gradient-20" x1="717.43" y1="2041.83" x2="712.8" y2="2008.57" gradientTransform="translate(-471.75 2239.91) scale(1 -1)" gradientUnits="userSpaceOnUse"><stop offset="0" stop-color="#000"/><stop offset=".12" stop-color="#000" stop-opacity=".75"/><stop offset="1" stop-color="#000" stop-opacity="0"/></linearGradient><linearGradient id="linear-gradient-21" x1="709.49" y1="2033.44" x2="720.65" y2="2033.44" gradientTransform="translate(-471.75 2239.91) scale(1 -1)" xlink:href="#linear-gradient-13"/><linearGradient id="linear-gradient-22" x1="660.87" y1="1924.36" x2="670.7" y2="1960.53" gradientTransform="translate(-471.75 2239.91) scale(1 -1)" xlink:href="#linear-gradient-16"/><linearGradient id="linear-gradient-23" x1="290.25" y1="263.76" x2="304.42" y2="340.65" gradientTransform="matrix(1,0,0,1,0,0)" xlink:href="#linear-gradient-13"/><linearGradient id="linear-gradient-24" x1="583.71" y1="1931.52" x2="676.86" y2="1931.52" gradientTransform="translate(-471 2246.87) scale(1 -1)" xlink:href="#linear-gradient"/><linearGradient id="linear-gradient-25" x1="789.51" y1="1922.24" x2="790.67" y2="1942.79" xlink:href="#linear-gradient-13"/><linearGradient id="linear-gradient-26" x1="615.7" y1="1949.59" x2="613.4" y2="1887.49" gradientTransform="translate(-471.75 2239.91) scale(1 -1)" xlink:href="#linear-gradient-13"/><linearGradient id="linear-gradient-27" x1="626.92" y1="1949.17" x2="624.6" y2="1887.07" gradientTransform="translate(-471.75 2239.91) scale(1 -1)" xlink:href="#linear-gradient-13"/><linearGradient id="linear-gradient-28" x1="638.6" y1="1948.74" x2="636.29" y2="1886.63" gradientTransform="translate(-471.75 2239.91) scale(1 -1)" xlink:href="#linear-gradient-13"/><linearGradient id="linear-gradient-29" x1="828.47" y1="1948.46" x2="830.21" y2="1980.49" gradientTransform="translate(-471.75 2239.91) scale(1 -1)" xlink:href="#linear-gradient-13"/><linearGradient id="linear-gradient-30" x1="816.56" y1="1947.15" x2="838.42" y2="1947.15" xlink:href="#linear-gradient"/></defs><g id="background"><path class="cls-3" d="M488.19,359.83c-3.62,17.93-14.82,33.51-28.03,46.16-23.48,22.35-53.31,36.86-85.39,41.52-16.74,2.38-33.73,2.02-50.62,1.62-73.08-1.73-148.41.42-221.19-7.11-54.18-5.6-89.63-62.92-92.87-113.68-.12-1.82-.2-3.63-.24-5.44-1.43-46.48,16.77-91.71,38.89-132.81,8.34-15.61,17.59-30.72,27.71-45.24,25.46-36.12,57.37-67.28,98.26-82.45,42.92-15.94,90.8-12.33,135.08-.81,15.72,4.08,31.55,9.28,44.39,19.27,28.55,22.12,35.83,61.22,49.81,94.54,2.44,5.8,5.13,11.52,8,17.11,16.68,32.56,39.68,61.83,57.84,93.74,6.55,11.52,12.55,23.92,16.16,36.68,3.42,12.08,4.67,24.53,2.18,36.91Z"/><path class="cls-34" d="M412.01,192.44v76.04H76.46v-123.69c2.63-3.73,5.34-7.4,8.12-11.01,1.11-1.46,2.24-2.91,3.4-4.35,2.32-2.94,4.7-5.82,7.15-8.65,14.41-16.81,30.65-31.7,49.02-43.26,2.09-1.31,4.21-2.58,6.36-3.82,7.77-4.45,15.89-8.25,24.28-11.37,2.62-.97,5.28-1.88,7.95-2.71,38.28-11.97,80.13-9.28,119.48,0,2.55.6,5.1,1.24,7.64,1.9,4.64,1.16,9.18,2.47,13.69,3.96,2.15.7,4.27,1.43,6.37,2.22,8.73,3.12,16.94,7.53,24.36,13.1,13.39,10.37,22.1,24.49,29,39.99,1.26,2.83,2.47,5.73,3.63,8.65.89,2.22,1.75,4.45,2.6,6.7,4.91,13.06,9.28,26.54,14.56,39.2,2.39,5.82,5.05,11.52,7.96,17.11Z"/><path class="cls-2" d="M144.14,77.52v43.26h-49.04c14.43-16.81,30.67-31.7,49.04-43.26Z"/><path class="cls-27" d="M210.1,59.62v61.16h-59.6v-47.08c7.77-4.44,15.89-8.24,24.28-11.36,2.62-.97,5.28-1.88,7.95-2.71h27.38Z"/><path class="cls-28" d="M144.14,129.43v61.14h-59.59v-56.84c1.11-1.46,2.24-2.91,3.4-4.35l56.19.05Z"/><rect class="cls-26" x="150.5" y="129.43" width="59.59" height="61.14"/><rect class="cls-32" x="84.56" y="199.24" width="59.59" height="61.14"/><rect class="cls-33" x="150.5" y="199.24" width="59.59" height="61.14"/><path class="cls-31" d="M323.49,65.48v55.3h-59.59v-61.16h38.28c2.55.6,5.1,1.24,7.64,1.9,4.56,1.19,9.15,2.47,13.66,3.96Z"/><path class="cls-29" d="M383.22,120.78h-53.36v-53.08c8.73,3.12,16.94,7.53,24.36,13.1,13.36,10.37,22.07,24.49,29,39.99Z"/><rect class="cls-30" x="263.9" y="129.43" width="59.59" height="61.14"/><path class="cls-11" d="M389.45,136.14v54.44h-59.59v-61.14h56.99c.89,2.26,1.75,4.45,2.6,6.7Z"/><rect class="cls-8" x="263.9" y="199.24" width="59.59" height="61.14"/><rect class="cls-9" x="329.86" y="199.24" width="59.59" height="61.14"/><path class="cls-25" d="M488.19,359.83c-3.62,17.93-14.82,33.51-28.03,46.16-23.48,22.35-53.31,36.86-85.39,41.52-16.74,2.38-33.73,2.02-50.62,1.62-73.08-1.73-148.41.42-221.19-7.11-54.18-5.6-89.63-62.92-92.87-113.68-.12-1.82-.2-3.63-.24-5.44h476.16c3.42,12.1,4.67,24.56,2.18,36.93Z"/></g><g id="character"><rect class="cls-39" x="88.41" y="337.91" width="311.65" height="105.87"/><rect class="cls-10" x="88.41" y="337.91" width="311.65" height="105.87"/><rect class="cls-19" x="88.41" y="339.17" width="311.65" height="20.14"/><path class="cls-35" d="M231.33,159.05h23.77c16.89.03,30.57,13.71,30.59,30.6v61.06h-85.04v-61.06c.02-16.92,13.75-30.62,30.67-30.6,0,0,0,0,.01,0Z"/><path class="cls-15" d="M231.33,159.05h23.77c16.89.03,30.57,13.71,30.59,30.6v61.06h-85.04v-61.06c.02-16.92,13.75-30.62,30.67-30.6,0,0,0,0,.01,0Z"/><path class="cls-39" d="M227.84,222.4l-31.44,10.44c-2.5,1.97-4.21,4.77-4.81,7.9-.97,5.21,5.39,25.52,6.36,35.88.96,10.36,2.12,24.1,2.12,24.1l6.03,26.78h70.97l4.25-50.15s10.44-35.48,10.44-39.34c-.06-2.52-.58-5-1.54-7.33l-32.89-9.74-29.49,1.45Z"/><path class="cls-13" d="M227.84,222.4l-31.44,10.44c-2.5,1.97-4.21,4.77-4.81,7.9-.97,5.21,5.39,25.52,6.36,35.88.96,10.36,2.12,24.1,2.12,24.1l6.03,26.78h70.97l4.25-50.15s10.44-35.48,10.44-39.34c-.06-2.52-.58-5-1.54-7.33l-32.89-9.74-29.49,1.45Z"/><polygon class="cls-37" points="230.44 221.62 227.84 222.4 230.92 302.04 255.61 302.24 256.95 222.06 230.44 221.62"/><path class="cls-39" d="M237.68,235.03l3.09,3.85c-.02,1.61-.28,3.2-.78,4.73-.77,2.12-6.36,48.59-6.36,48.59l8.68,11,9.84-13.69-6.37-50.44,2.41-5.39-3.38-3.67-3.38-.39-3.76,5.41Z"/><path class="cls-12" d="M237.68,235.03l3.09,3.85c-.02,1.61-.28,3.2-.78,4.73-.77,2.12-6.36,48.59-6.36,48.59l8.68,11,9.84-13.69-6.37-50.44,2.41-5.39-3.38-3.67-3.38-.39-3.76,5.41Z"/><polygon class="cls-39" points="407.38 332.12 78.77 332.12 95.54 290.46 380.19 290.46 407.38 332.12"/><polygon class="cls-18" points="407.38 332.12 78.77 332.12 95.54 290.46 380.19 290.46 407.38 332.12"/><path class="cls-39" d="M330.15,295.63l-2.66,5.25c-.14.27-.04.6.23.74.08.04.17.06.26.06h0c.21,0,.39-.12.49-.3l2.7-5.23c.14-.27.03-.6-.24-.73-.01,0-.03-.01-.04-.02h0c-.26-.14-.58-.05-.73.2,0,0-.01.02-.02.03Z"/><path class="cls-39" d="M327.46,298.33l-7.95,15.73c-.38.82-.02,1.79.8,2.17.21.1.43.15.66.15h0c.62,0,1.18-.35,1.46-.89l8.12-15.67c.41-.8.09-1.79-.71-2.2-.04-.02-.07-.04-.11-.05l-.14-.07c-.82-.36-1.77.02-2.13.84Z"/><path class="cls-14" d="M327.46,298.33l-7.95,15.73c-.38.82-.02,1.79.8,2.17.21.1.43.15.66.15h0c.62,0,1.18-.35,1.46-.89l8.12-15.67c.41-.8.09-1.79-.71-2.2-.04-.02-.07-.04-.11-.05l-.14-.07c-.82-.36-1.77.02-2.13.84Z"/><path class="cls-38" d="M254.89,286.83c-2.05-.52-4.17-.69-6.28-.51-1.97-.05-3.88.63-5.38,1.9-2.08,2.15-1.48,5.8.3,8.22s4.43,3.96,6.7,5.89c.89.9,1.91,1.64,3.04,2.2.9.32,1.84.49,2.8.51,2.22.25,4.47.17,6.67-.22,2.23-.41,4.21-1.66,5.56-3.48,1.84-2.71,1.88-9.71-1.5-10.71-2.02-.59-3.99-.49-6.06-1.39-1.9-.94-3.85-1.75-5.86-2.42Z"/><path class="cls-38" d="M235.76,287.38c.94-.42,1.93-.71,2.95-.86,2.32-.26,4.62.68,6.09,2.49,1.42,1.86,1.72,4.35.77,6.48-.9,1.45-1.93,2.82-3.09,4.07-1.22,1.64-1.97,3.6-3.39,5.05-3.33,3.41-9.72,3.48-14.14,2.91-2.12-.17-4.05-1.29-5.25-3.04-1.8-3-.51-7.88,1.68-10.36,1.36-1.53,3.48-1.91,5.29-2.73l8.05-3.57,1.04-.45Z"/><path class="cls-38" d="M234.39,212.08s.58,6.65-4.19,8.53c-4.77,1.88,8.68,18.95,23.72,4.2,1.49.17,2.84-.89,3.01-2.38.01-.12.02-.24.02-.37.15-3.04-6.8-.87-6.51-11,.29-10.13-14.74-4.48-16.05,1.02Z"/><path class="cls-21" d="M237.98,221.18c1.57,2.17,4.42,3.72,6.96,2.8,1.58-.77,2.89-1.98,3.79-3.48,1.44-1.97,2.96-4.16,2.84-6.6.02-.68-.25-1.34-.75-1.8-.41-.28-.89-.45-1.38-.49-3.96-.6-8-.28-11.82.92-2.17.67-2.81.92-2.09,3.14.52,1.95,1.35,3.81,2.45,5.51Z"/><path class="cls-38" d="M226.01,184.6s-.29,18.79,6.08,26.9,15.47,10.44,22.56,0c3.29-4.85,5.21-23,3.91-25.75-1.3-2.75-19.24-16.34-26.76-9.69s-5.79,8.54-5.79,8.54Z"/><path class="cls-35" d="M226.05,171.23c-1.36.99-2.53,2.21-3.48,3.6-.94,1.41-1.36,3.11-1.16,4.79.42,1.64,1.08,3.2,1.96,4.64,1.74,3.6,2.1,7.69,3.39,11.46.48-3.09.87-6.23,1.16-9.42,1.57.67,3.27,1,4.98.99,8.26.44,16.54.17,24.8-.09.1,2.21-.09,4.42-.55,6.58-.27,1.51-.05,3.06.64,4.43,1.91-1.79.44-5.34,2.42-7.05.46-.3.88-.66,1.25-1.07.63-.88.22-2.15.64-3.14.43-.76,1.05-1.4,1.79-1.86,2.16-1.74,3.48-4.87,2.32-7.38-.85-1.47-2.09-2.67-3.58-3.48l-3.16-2.1c-1.09-.72-2.82-1.71-3.99-2.32-1.51-.77-2.69-2.04-4.12-2.95-2.5-1.34-5.29-2.03-8.12-2.02-5-.28-10.28,0-14.56,2.66-1.41.77-2.38,2.15-2.63,3.74Z"/><path class="cls-35" d="M245.93,204.86c.33-.05.67-.05,1,0,1.09.27,1.61,1.47,1.97,2.53-.1-.31-4.94.17-5.45.21-1.88.13-3.78.5-5.65.52-.77-4.04,5.9-3.14,8.13-3.26Z"/><path class="cls-36" d="M226.05,171.23c-1.36.99-2.53,2.21-3.48,3.6-.94,1.41-1.36,3.11-1.16,4.79.42,1.64,1.08,3.2,1.96,4.64,1.74,3.6,2.1,7.69,3.39,11.46.48-3.09.87-6.23,1.16-9.42,1.57.67,3.27,1,4.98.99,8.26.44,16.54.17,24.8-.09.1,2.21-.09,4.42-.55,6.58-.27,1.51-.05,3.06.64,4.43,1.91-1.79.44-5.34,2.42-7.05.46-.3.88-.66,1.25-1.07.63-.88.22-2.15.64-3.14.43-.76,1.05-1.4,1.79-1.86,2.16-1.74,3.48-4.87,2.32-7.38-.85-1.47-2.09-2.67-3.58-3.48l-3.16-2.1c-1.09-.72-2.82-1.71-3.99-2.32-1.51-.77-2.69-2.04-4.12-2.95-2.5-1.34-5.29-2.03-8.12-2.02-5-.28-10.28,0-14.56,2.66-1.41.77-2.38,2.15-2.63,3.74Z"/><path class="cls-17" d="M245.93,204.86c.33-.05.67-.05,1,0,1.09.27,1.61,1.47,1.97,2.53-.1-.31-4.94.17-5.45.21-1.88.13-3.78.5-5.65.52-.77-4.04,5.9-3.14,8.13-3.26Z"/><path class="cls-37" d="M233.24,217.43s8.24,12.44,10.12,12.88l-8.97,8.68s-6.22-13.92-5.21-17.79l4.06-3.76Z"/><path class="cls-37" d="M252.01,218.14c-1.03,3.31-4.19,12.09-8.65,12.17l7.82,9.28s6.22-8.83,6.07-18.62l-3.86-3.21c-.37-.3-.92-.25-1.22.13-.06.08-.11.16-.14.26Z"/><path class="cls-39" d="M193.18,236.52s-22.46,48.49-21.88,52.83-1.16,6.37.29,8.68,44.54,10.71,44.54,10.71l4.05-18.22-20.53-4.92-4.64-1.35c8.6-12.25,11.7-30.54,6.8-44.68-2.12-6.24-6.15-5.19-8.63-3.04Z"/><path class="cls-20" d="M193.18,236.52s-22.46,48.49-21.88,52.83-1.16,6.37.29,8.68,44.54,10.71,44.54,10.71l4.05-18.22-20.53-4.92-4.64-1.35c8.6-12.25,11.7-30.54,6.8-44.68-2.12-6.24-6.15-5.19-8.63-3.04Z"/><path class="cls-39" d="M290.99,231.46s28.63,51.2,28.06,55.54,1.16,6.37-.29,8.69-44.56,10.7-44.56,10.7l-4.05-18.22,20.54-4.92-3.4-4.83c-6.45-9.2-8.49-20.79-5.56-31.63,2.53-9.31,5.93-18.19,9.25-15.32Z"/><path class="cls-16" d="M290.99,231.46s28.63,51.2,28.06,55.54,1.16,6.37-.29,8.69-44.56,10.7-44.56,10.7l-4.05-18.22,20.54-4.92-3.4-4.83c-6.45-9.2-8.49-20.79-5.56-31.63,2.53-9.31,5.93-18.19,9.25-15.32Z"/><polygon class="cls-37" points="220.19 290.5 223.74 291.15 220.22 307.54 216.66 306.76 220.19 290.5"/><polygon class="cls-37" points="270.46 289.12 267.08 289.99 270.84 306.87 274.2 306.38 270.46 289.12"/><path class="cls-1" d="M266.35,291.26c-4.26.59-8.57-.21-12.86-.31s-8.92.59-12.02,3.57c-1.42,1.17-2.12,2.99-1.87,4.81"/><path class="cls-38" d="M244.46,284.93c3.07-.45,11.86,1.95,11.6,2.32-.74,1.35-4.29,4.57-5.37,5.66-.55.62-1.22,1.11-1.97,1.46-.69.25-1.41.39-2.13.42-2.74.24-5.5.34-8.25.3-.65.04-1.3-.08-1.89-.36-1.91-1.16-3.42-4.8-2.18-6.32,1.69-1.98,7.8-3.13,10.2-3.48Z"/><rect class="cls-39" x="78.77" y="332.12" width="328.73" height="7.52"/><polygon class="cls-39" points="206.04 326.92 107.12 326.92 111.75 303.78 203.15 303.78 206.04 326.92"/><polygon class="cls-23" points="205.86 326.92 112.71 326.92 117.07 303.78 203.13 303.78 205.86 326.92"/><path class="cls-39" d="M311.68,314.38h14.37c2.1,0,3.8,1.7,3.8,3.8h0c0,2.1-1.7,3.8-3.8,3.8h-14.37c-2.1,0-3.8-1.7-3.8-3.8h0c0-2.1,1.7-3.8,3.8-3.8Z"/><path class="cls-7" d="M311.68,314.38h14.37c2.1,0,3.8,1.7,3.8,3.8h0c0,2.1-1.7,3.8-3.8,3.8h-14.37c-2.1,0-3.8-1.7-3.8-3.8h0c0-2.1,1.7-3.8,3.8-3.8Z"/><path class="cls-24" d="M146.86,318.87c-.16.23-.34.44-.55.63-.21.21-.46.38-.72.52-.29.16-.6.28-.92.36-.36.1-.72.14-1.09.14-.62,0-1.24-.11-1.82-.35-1.09-.44-1.96-1.31-2.39-2.4-.23-.59-.35-1.21-.34-1.84,0-.63.11-1.25.34-1.83.22-.54.55-1.03.96-1.45.41-.41.9-.74,1.44-.95.57-.24,1.19-.35,1.81-.35.32,0,.63.03.94.09.3.06.59.16.87.29.26.12.51.26.74.43.21.17.4.36.56.58l-.74.55c-.1-.15-.22-.29-.36-.42-.16-.15-.34-.28-.55-.37-.21-.12-.44-.21-.67-.27-.25-.06-.52-.09-.78-.09-.52,0-1.04.09-1.52.3-.44.2-.84.48-1.16.84-.31.34-.55.73-.71,1.16-.17.47-.25.96-.26,1.45,0,.49.09.99.26,1.45.16.45.4.86.72,1.22.33.35.72.63,1.16.82.47.22.99.32,1.51.31.49,0,.98-.11,1.43-.31.47-.21.87-.55,1.16-.99l.67.49Z"/><path class="cls-22" d="M152.36,319.5h4.64v.79h-5.53v-8.72h5.42v.79h-4.52v2.99h4.22v.79h-4.22v3.36Z"/><path class="cls-6" d="M170.48,315.93c0,.63-.11,1.26-.35,1.84-.22.54-.54,1.03-.95,1.44-.42.41-.91.74-1.45.96-.57.24-1.18.35-1.8.35-.62,0-1.24-.11-1.81-.35-1.09-.45-1.95-1.32-2.4-2.4-.23-.59-.35-1.21-.34-1.84-.01-.63.1-1.25.34-1.83.22-.54.55-1.03.96-1.45.41-.41.9-.74,1.44-.95.57-.24,1.19-.35,1.81-.35.62,0,1.23.11,1.8.35.54.21,1.04.54,1.45.95.41.42.73.91.95,1.45.24.58.35,1.2.35,1.83ZM169.54,315.93c0-.49-.08-.98-.24-1.45-.16-.45-.4-.86-.72-1.22-.32-.36-.72-.64-1.16-.84-.48-.2-.99-.31-1.51-.3-.52,0-1.03.1-1.51.3-.44.2-.84.48-1.16.84-.32.35-.56.77-.71,1.22-.17.46-.26.96-.26,1.45,0,.49.08.99.26,1.45.5,1.42,1.86,2.36,3.36,2.32.52,0,1.03-.1,1.51-.31.44-.19.84-.47,1.16-.82.31-.34.56-.73.72-1.16.17-.47.25-.96.26-1.46h0Z"/><path class="cls-39" d="M341.99,271.63h0c-.63-.96-.28-2.52-1.28-3.07-.44-.17-.92-.24-1.39-.22-1.88-.16-3.25-1.81-4.27-3.4-.94-1.36-1.67-2.86-2.17-4.44-.49-1.59-.49-3.3,0-4.9.15-.59.53-1.09,1.06-1.39.56-.17,1.17-.13,1.71.12,2.85,1.1,5.33,2.99,7.16,5.44.96,1.22,1.6,2.67,2.53,3.89,1.36,1.76,1.61-1.16,1.48-2.19-.12-.93.12-1.87.66-2.63.18-.21.32-.46.42-.72.03-.23.01-.46-.06-.68-.39-1.28-1.61-2.19-1.93-3.48-.13-.77-.09-1.56.1-2.32.42-2.2,1.06-6.25,3.42-7.28,1.28-.45,2.7-.11,3.64.86,1.2,1.28,2.29,2.66,3.24,4.13,1.04,1.5,1.25,3.42.56,5.1-.54.83-.93,1.74-1.16,2.7-.14,2.17,2.62,3.74,2.4,5.89s-2.82,2.95-3.41,4.88c-.42,1.39.93,5.03,2.82,4.35,1.32-.49,2.13-4.37,2.7-5.6,1.92-4.06,4.37-7.83,7.31-11.23.77-.88,2.08-1.79,2.97-1.03.36.37.55.88.53,1.39-.03,1.77-.48,3.51-1.31,5.07l-5.24,12.1c4.89-5.24,11.3-8.81,18.33-10.2,2.98-.59.67,4.71-1.29,5.29-.99.29-2.12.21-2.93.84-.61.63-1.06,1.41-1.29,2.26-.6,1.37-1.56,2.54-2.77,3.41-1.94,1.37-4.37,1.81-6.59,2.67-1.57.52-2.96,1.49-3.99,2.78-.87,1.16-.81,2.76-1.68,3.94s-2.76,1.25-4.3,1.16c-1.97-.1-3.93-.33-5.87-.67-1.4-.29-3.93-.66-4.64-1.97-1-1.47-1.61-3.18-1.76-4.95,0-1.29.43-2.75-.37-3.75s-2.6-1.04-3.33-2.13Z"/><path class="cls-4" d="M341.99,271.63h0c-.63-.96-.28-2.52-1.28-3.07-.44-.17-.92-.24-1.39-.22-1.88-.16-3.25-1.81-4.27-3.4-.94-1.36-1.67-2.86-2.17-4.44-.49-1.59-.49-3.3,0-4.9.15-.59.53-1.09,1.06-1.39.56-.17,1.17-.13,1.71.12,2.85,1.1,5.33,2.99,7.16,5.44.96,1.22,1.6,2.67,2.53,3.89,1.36,1.76,1.61-1.16,1.48-2.19-.12-.93.12-1.87.66-2.63.18-.21.32-.46.42-.72.03-.23.01-.46-.06-.68-.39-1.28-1.61-2.19-1.93-3.48-.13-.77-.09-1.56.1-2.32.42-2.2,1.06-6.25,3.42-7.28,1.28-.45,2.7-.11,3.64.86,1.2,1.28,2.29,2.66,3.24,4.13,1.04,1.5,1.25,3.42.56,5.1-.54.83-.93,1.74-1.16,2.7-.14,2.17,2.62,3.74,2.4,5.89s-2.82,2.95-3.41,4.88c-.42,1.39.93,5.03,2.82,4.35,1.32-.49,2.13-4.37,2.7-5.6,1.92-4.06,4.37-7.83,7.31-11.23.77-.88,2.08-1.79,2.97-1.03.36.37.55.88.53,1.39-.03,1.77-.48,3.51-1.31,5.07l-5.24,12.1c4.89-5.24,11.3-8.81,18.33-10.2,2.98-.59.67,4.71-1.29,5.29-.99.29-2.12.21-2.93.84-.61.63-1.06,1.41-1.29,2.26-.6,1.37-1.56,2.54-2.77,3.41-1.94,1.37-4.37,1.81-6.59,2.67-1.57.52-2.96,1.49-3.99,2.78-.87,1.16-.81,2.76-1.68,3.94s-2.76,1.25-4.3,1.16c-1.97-.1-3.93-.33-5.87-.67-1.4-.29-3.93-.66-4.64-1.97-1-1.47-1.61-3.18-1.76-4.95,0-1.29.43-2.75-.37-3.75s-2.6-1.04-3.33-2.13Z"/><circle class="cls-39" cx="355.72" cy="293.04" r="10.93"/><path class="cls-39" d="M366.63,281.54c-.2,6.03-5.24,10.75-11.27,10.55-5.75-.19-10.37-4.8-10.55-10.55h21.82Z"/><path class="cls-5" d="M366.67,293.05c0,6.03-4.88,10.93-10.92,10.94-6.03,0-10.93-4.88-10.94-10.92,0-2.14.62-4.23,1.8-6.01-1.07-1.64-1.69-3.55-1.77-5.51h21.82c-.09,1.96-.71,3.87-1.79,5.51,1.18,1.78,1.8,3.86,1.8,6Z"/></g></svg>