<svg version="1.1" id="Layer_1" xmlns="http://www.w3.org/2000/svg" xmlns:xlink="http://www.w3.org/1999/xlink" x="0px" y="0px" viewBox="0 0 500 500" style="width: 188px;" xml:space="preserve" data-imageid="customer-service-51" imageName="Customer Service" class="illustrations_image">
<style type="text/css">
	.st0{fill:#FFBE30;}
	.st1{fill:#297600;}
	.st2{opacity:0.32;fill:url(#SVGID_1_);enable-background:new    ;}
	.st3{fill:#FF9476;}
	.st4{opacity:0.3;fill:#272322;enable-background:new    ;}
	.st5{opacity:0.4;fill:#272322;enable-background:new    ;}
	.st6{fill:#FFE9CA;}
	.st7{fill:#68E1FD;}
	.st8{fill:#F7FFEB;}
	.st9{fill:#272322;}
	.st10{opacity:0.47;fill:#56403D;enable-background:new    ;}
	.st11{opacity:0.32;fill:url(#SVGID_00000005264594540722661970000010559405110638971023_);enable-background:new    ;}
	.st12{opacity:0.22;fill:#272322;enable-background:new    ;}
	.st13{opacity:0.55;fill:#272322;enable-background:new    ;}
	.st14{opacity:0.5;fill:#68E1FD;enable-background:new    ;}
	.st15{fill:#56403D;}
	.st16{opacity:0.32;fill:url(#SVGID_00000039125029196210104740000002165748514060479656_);enable-background:new    ;}
	.st17{fill:#5FAD00;}
</style>
<path id="field" class="st0" d="M243.3,439.4L31.6,314.2c-6.7-3.8-12.5-10-6-14.1l212.5-122.4c3.2-2,8-3.3,11.3-1.4l222.2,129&#10;&#9;c6.7,3.9,8,14.8,1.2,18.8L271.2,439.1C262.6,444.1,252,444.2,243.3,439.4z"/>
<g id="cs">
	<path class="st1" d="M241.7,156.2c-2.5-1.5-5.8-1-8.6,0c-11.8,4.1-28.9,12.4-28.7,27c0.1,7.9,0.9,15.7,2.4,23.5&#10;&#9;&#9;c0.6,3.1,3.2,16.9,5,19.6c2.7,3.9,12.6-15,14.8-16.5c3.9-2.6,7.7-5.2,11.4-8c2.8-2.1,9-5.3,10.1-8.6c0.2-0.7,0.3-1.5,0.3-2.3&#10;&#9;&#9;c0.2-6.9-0.2-13.8-1.1-20.7C246.4,165.8,246.1,158.8,241.7,156.2z"/>
	
		<linearGradient id="SVGID_1_" gradientUnits="userSpaceOnUse" x1="176.0717" y1="80.8487" x2="207.5617" y2="122.0287" gradientTransform="matrix(1 0 0 -1 0 502)">
		<stop offset="0" style="stop-color:#FFBE30;stop-opacity:0"/>
		<stop offset="1" style="stop-color:#56403D"/>
	</linearGradient>
	<polyline class="st2" points="217.8,315.3 128.1,371.5 218.8,424 299.8,371.8 &#9;"/>
	<polyline class="st3" points="158.6,252 175.3,339.9 266.1,392.6 408.9,304.5 416.2,217.4 &#9;"/>
	<polyline class="st4" points="158.6,252 175.3,339.9 266.1,392.6 408.9,304.5 416.2,217.4 &#9;"/>
	<polygon class="st3" points="158.6,252 256.6,309.3 416.2,217.4 318.2,159.9 &#9;"/>
	<polygon class="st5" points="266.1,392.6 257.4,309.3 416.2,217.4 408.9,304.5 &#9;"/>
	<path class="st6" d="M265.9,226.6c0.1-2.2-0.9-4.3-2.5-5.7c0.8-0.1,1.4-0.9,1.2-1.6c-0.1-0.5-0.5-1-1-1.2c-2.2-0.6-4.5-1.5-6.9-2&#10;&#9;&#9;c-0.2-0.1-0.3-0.2-0.5-0.2c-4.7-0.9-9-3.1-12.5-6.4c-0.6-0.5-1.5-0.5-2.1,0.1c-0.4,0.4-0.5,1-0.3,1.5c-0.5,0.3-0.9,0.8-0.9,1.4&#10;&#9;&#9;c-0.8,0.1-1.4,0.8-1.3,1.7c0,0.3,0.2,0.6,0.4,0.8c0.5,0.5,1,1.1,1.6,1.5c0,0.1,0.1,0.2,0.1,0.3c-0.2,0.1-0.3,0.3-0.4,0.5&#10;&#9;&#9;c-0.6-0.6-1.2-1.2-1.8-1.7c-1.4-1.2-3.5,0.9-2,2c1.7,1.4,3.2,3.1,5.1,3.9c2.8,2.7,6.4,3.4,10.2,3.1c0.1,0.1,0.3,0.2,0.4,0.3&#10;&#9;&#9;c1.8,1.2,1.6,3.5,1.9,5.5c0.2,0.8,1,1.2,1.8,1c0.3-0.1,0.6-0.3,0.8-0.6c0.9-2,0.5-4.3,0.1-6.4c1.1,0.4,1.9,1.3,2.2,2.4&#10;&#9;&#9;c0.4,1.4,0.6,2.8,0.8,4.3c0.4,1.8,3.1,1.1,2.8-0.8v-0.1c0.7,0.1,1.3-0.3,1.5-1c0-0.1,0-0.2,0-0.4l-0.1-0.8&#10;&#9;&#9;C265.4,228,265.9,227.4,265.9,226.6C265.9,226.7,265.9,226.7,265.9,226.6z"/>
	<path class="st6" d="M294.1,195.9c0.7-1.2-0.2-3-0.9-4.1c-1.4-2-3-3.7-4.9-5.2c-0.6-0.5-1.6-0.4-2.1,0.2c-0.3,0.4-0.4,0.9-0.3,1.4&#10;&#9;&#9;c-0.2-0.1-0.3-0.1-0.5-0.1c-0.3-0.6-0.9-1-1.6-1.1c-1.1-1-2.6,0.5-2.2,1.7c-0.7,0.1-1.2,0.7-1.2,1.4c0.1,1.1,0.4,2.1,1,3&#10;&#9;&#9;c-0.9-0.9-1.8-1.8-2.7-2.7c-1.1-1.1-3.2,0.5-2.2,1.8c0.2,0.2,0.3,0.4,0.5,0.7c0.2,0.2,0.4,0.4,0.6,0.5l0.8,0.7l0,0&#10;&#9;&#9;c0.8,1.2,1.7,2.4,2.6,3.6c-0.5,0.4-0.6,1.1-0.3,1.7c0,0,0,0.1,0.1,0.1c1.6,2.1,5.5,8.6,8.7,5.4c0.8,1.2,1.6,2.4,2.3,3.6&#10;&#9;&#9;c0.4,0.7,1.3,0.9,1.9,0.5c0.2-0.1,0.4-0.3,0.5-0.6c0.4-0.2,0.6-0.7,0.5-1.2c-0.2-1-0.5-2-0.9-3c1.5-1.1,1.3-2.7,0.5-4.2&#10;&#9;&#9;C294.9,198.6,294.8,197.1,294.1,195.9z"/>
	<path class="st7" d="M279.2,200.9c2.7-6.7,9.1-11.5,15.9-14.4l-5.4-3.9c-6-5.3-11.9-10.9-17.8-16.4c-6.7-6.1-13-14.5-22.5-15.8&#10;&#9;&#9;c-4.4-0.6-9.6,0.4-13.9,1.2c-4.7,1-9.6,2.9-13.1,6.6c-3.8,4.1-5.3,9.8-6.9,15.1c-1.7,5.5-2.9,11.2-3.6,17c-0.4,4.1-0.9,9.1,0.7,13&#10;&#9;&#9;c1,2.4,2.3,4.7,3.8,6.8c4.8,4.8,10.1,8.9,16,12.3c1.6,0.9,3.1,1.8,4.8,2.6c3.8-5,9.6-10,15.9-12l-12.2-8.2l22.5-13.2L279.2,200.9z"/>
	<path class="st8" d="M253.6,197.4l-4.2-47l-9.2-2.7l-9.2,3.1c8,3.6,11.4,43.4,13.2,52.1C244.5,202.8,253.5,197.5,253.6,197.4z"/>
	<path class="st9" d="M260.5,220.6c-0.3-0.2-0.6,0.3-0.3,0.5c2.3,1.6,3.8,4.1,4,6.8c0,0.4,0.6,0.4,0.6,0&#10;&#9;&#9;C264.5,224.9,262.9,222.3,260.5,220.6z"/>
	<path class="st9" d="M258.9,222.2c-0.1-0.1-0.3,0-0.4,0.1s0,0.3,0.1,0.4c2.5,1.5,4,4.2,4,7.1c0,0.2,0.2,0.3,0.3,0.2&#10;&#9;&#9;c0.1,0,0.2-0.1,0.2-0.2C263.2,226.7,261.5,223.9,258.9,222.2z"/>
	<path class="st9" d="M264,220.7c-2.5-2-5.2-3.6-8.1-4.8c-0.3-0.1-0.5,0.4-0.1,0.6c2.8,1.2,5.5,2.7,7.9,4.6&#10;&#9;&#9;C263.9,221.4,264.3,221,264,220.7z"/>
	<path class="st9" d="M294.1,204.4c1-0.8,1.4-2.1,0.9-3.3c-0.1-0.5-0.3-0.9-0.5-1.4l0.1-0.1c0.9-1.9-0.3-3.7-1.1-5.4&#10;&#9;&#9;c-0.2-0.3-0.7,0-0.5,0.3c0.7,1.4,1.8,2.9,1.3,4.4c-0.5-1.1-1.1-2.2-1.8-3.1c-0.2-0.3-0.7,0-0.5,0.3c1.1,1.6,4.1,6.3,1.8,7.8&#10;&#9;&#9;c0,0-0.1,0.1-0.1,0.1c-0.9-2.4-2-4.7-3.2-6.9c-0.2-0.3-0.7,0-0.5,0.3c0.9,1.7,1.7,3.4,2.5,5.1c0.3,0.7,0.6,1.4,0.9,2.2l0.4,1.2&#10;&#9;&#9;c0.1,0.4,0.2,0.6,0.2,0.7c0.1,0.3,0.1,0.7,0,1c-0.2,0.5-0.7,0.8-1.2,0.7c-0.3-0.1-0.6-0.3-0.8-0.5c-0.2-0.1-0.2-0.3-0.5-0.8l-0.6-1&#10;&#9;&#9;c-0.5-0.8-1-1.6-1.5-2.4l-3.1-4.9c-0.2-0.3-0.7,0-0.5,0.3l4.9,7.8c0.6,1,1.9,3.4,3.5,2.2c1.3-1,0.2-3.3-0.3-4.5&#10;&#9;&#9;C294,204.5,294.1,204.5,294.1,204.4z"/>
	<path class="st10" d="M242.9,205c-2.9-3-5.7-6.1-8.4-9.3v-7c-0.1-0.5-0.5-0.8-1-0.8c-0.4,0-0.7,0.4-0.8,0.8v4.9l-1.1-1.4&#10;&#9;&#9;c-0.7-0.9-1.9,0.4-1.2,1.2s1.6,2,2.3,2.9c0.1,0.2,0.2,0.4,0.4,0.5c2.7,3.2,5.5,6.4,8.4,9.4C242.4,207,243.7,205.8,242.9,205z"/>
	<polygon class="st10" points="263.6,191.6 260,176.9 257.1,195.3 &#9;"/>
	<path class="st10" d="M233.1,152.7c0.1,0.4,10.6,9.3,10.6,9.3l1.5-4.9l3.5,4.2l1.2-6l-0.4-4.9"/>
	<path class="st0" d="M239.8,152.5c-7.4,2.9-16-3.1-12.9-16.1c2.8-11.8,17.3-10.4,17.3-10.4"/>
	<path class="st6" d="M242.5,129c-6.8-0.3-11.4,8.3-11.1,12.9c0.1,1.7,0.4,3.4,1,5.1c0.2,0,0.3,0.1,0.5,0.1c1,0.3,1.9,0.8,2.5,1.6&#10;&#9;&#9;c0.7,0.9,0.9,2.1,1.6,3.1c1.2,1.6,2.9,2.8,4.8,3.4c0.6,0.1,1.1,0.2,1.7,0.2c9.1,0.6,9.1-20.1,9.4-21.4&#10;&#9;&#9;C250.2,130.9,246.5,129.2,242.5,129z"/>
	<path class="st0" d="M241.9,140l8.1-1.6c0.4-1.5,0.5-3,0.2-4.5l0.9,4.2h3c0,0,2.1-8.1-7.1-11.3s-18,1.8-17.6,10&#10;&#9;&#9;c0.1,4.7,1.9,9.1,5,12.6c0,0-4.6-7.8-3-4.5c2,4.1,4-3.7,3.9-6.1l1,1.8L241.9,140z"/>
	<path class="st6" d="M236.8,146c0-1.2-0.6-2.4-1.5-3.2c-0.8-0.7-2.2-1.3-3.1-0.4s-0.6,2.4-0.3,3.4c0.4,1.4,1.1,2.6,2,3.7&#10;&#9;&#9;c1,1.1,2.6-0.5,1.6-1.6c-0.3-0.3-0.5-0.7-0.8-1.1c0.4,0.5,1.1,0.5,1.6,0.1C236.7,146.7,236.8,146.3,236.8,146z"/>
	<path class="st9" d="M240.3,148c-2.2,0.3-4.2-1.3-4.4-3.5c-0.3-2.2,1.3-4.2,3.5-4.4s4.2,1.3,4.4,3.5c0,0.2,0,0.3,0,0.5&#10;&#9;&#9;C243.9,146.1,242.3,147.9,240.3,148z M240.3,140.4c-2-0.2-3.9,1.2-4.1,3.3c-0.2,2,1.2,3.9,3.3,4.1c2,0.2,3.9-1.2,4.1-3.3&#10;&#9;&#9;c0-0.1,0-0.3,0-0.4C243.6,142.1,242.2,140.5,240.3,140.4L240.3,140.4z"/>
	<path class="st9" d="M249,145.9c-1.7,0-3.1-1.8-3.1-3.9s1.4-4,3.1-4s3.1,1.8,3.1,4S250.8,145.9,249,145.9z M249,138.2&#10;&#9;&#9;c-1.6,0-2.9,1.7-2.9,3.7s1.3,3.7,2.9,3.7s2.9-1.7,2.9-3.7S250.6,138.2,249,138.2L249,138.2z"/>
	<path class="st9" d="M245.1,142.6c0-0.2-0.3-0.4-0.5-0.4c-0.2,0-0.3,0.2-0.4,0.4c0,0.7,0.1,1.5,0.4,2.2c0.3,0.7,0.5,1.5,0.7,2.3&#10;&#9;&#9;c-0.4,0.2-0.9,0.4-1.3,0.5c-0.5,0.2-0.3,1.1,0.2,0.9c0.8-0.3,2-0.4,2-1.5C246.1,145.5,245.1,144.2,245.1,142.6z"/>
	
		<rect x="243.6" y="144" transform="matrix(0.9775 -0.2112 0.2112 0.9775 -24.8982 54.9928)" class="st9" width="2.8" height="0.2"/>
	
		<rect x="233.7" y="142" transform="matrix(0.5336 -0.8457 0.8457 0.5336 -12.2458 264.676)" class="st9" width="0.2" height="2.9"/>
	<path class="st9" d="M244.6,150.1c-0.9,0.9-2.2,0.4-3-0.4c-0.3-0.3-0.7,0.1-0.4,0.4c0.9,1.2,2.5,1.4,3.7,0.6c0,0,0.1-0.1,0.1-0.1&#10;&#9;&#9;C245.4,150.3,244.9,149.8,244.6,150.1z"/>
	<circle class="st0" cx="224" cy="139.9" r="5.4"/>
	<path class="st9" d="M248.2,127.6c0,0-2-2-10.4,2.1c-7.6,3.7-5.1,12.6-5.1,12.6l-2.5,1.6c0,0-3.9-8.2,0.8-14.1&#10;&#9;&#9;c5.9-7.4,12.2-4.8,12.2-4.8S246.8,125.8,248.2,127.6z"/>
	<path class="st9" d="M244.5,151.9c-0.3,0-0.6,0.3-0.7,0.6l-0.1,0.1c-3.1,1-6.5,0-8.6-2.4c2-1.5,2.5-4.4,1-6.4c-1.5-2-4.4-2.5-6.4-1&#10;&#9;&#9;c-2,1.5-2.5,4.4-1,6.4c0.9,1.2,2.2,1.9,3.7,1.9c0.4,0,0.9-0.1,1.3-0.2c0,0,0,0.1,0.1,0.1c2.6,3.1,6.9,4.3,10.7,3&#10;&#9;&#9;c0.4,0.3,1.1,0.2,1.4-0.2c0,0,0.1-0.1,0.1-0.1C246.5,152.6,245.4,151.8,244.5,151.9z"/>
	
		<linearGradient id="SVGID_00000129924537578799120230000017755544868877416580_" gradientUnits="userSpaceOnUse" x1="356.2841" y1="274.2962" x2="365.3841" y2="284.0862" gradientTransform="matrix(1 0 0 -1 0 502)">
		<stop offset="0" style="stop-color:#FFFFFF;stop-opacity:0"/>
		<stop offset="1" style="stop-color:#56403D"/>
	</linearGradient>
	<path style="opacity:0.32;fill:url(#SVGID_00000129924537578799120230000017755544868877416580_);enable-background:new    ;" d="&#10;&#9;&#9;M369.4,208.7c-0.1-0.1-0.1-0.2,0-0.3c0.1-0.1-1.3-0.4-1.3-0.5s-0.8-0.3-0.8-0.5c-1.8-0.7-3.4-1.7-4.6-3.1l-17.6,11.3l24.2,13.8&#10;&#9;&#9;l16.9-9.7C386.2,219.6,372.2,211.8,369.4,208.7z"/>
	<path class="st9" d="M381.6,197l-6.7-3.1c-2.1-1-4.6-2.3-4.5-5c0-0.3-0.4-0.3-0.4,0c-0.1,2.2,1.5,3.7,3.4,4.7&#10;&#9;&#9;c2.6,1.4,5.4,2.5,8,3.7C381.6,197.5,381.8,197.1,381.6,197z"/>
	<path class="st9" d="M382.2,192.1v4.4c0,0.1,0.1,0.2,0.2,0.2s0.2-0.1,0.2-0.2l0,0v-4.4c0-0.1-0.1-0.2-0.2-0.2&#10;&#9;&#9;S382.2,192,382.2,192.1z"/>
	<path class="st9" d="M379.3,201.7c-1.2-2.1-3.6-3.2-5.9-3.9c-2.5-0.8-5.4-1.4-7.8-0.1c-0.1,0-0.1,0.1-0.1,0.2c-0.7,0.3-1.4,0.6-2,1&#10;&#9;&#9;c-1.9,1.1-4.1,2.7-5.1,4.7s-0.1,4.8,0.6,6.9c0.7,2.2,2.1,4,4,5.2c2.1,1.1,4.5,1.4,6.8,1.1c2.6-0.3,5-1.2,7.1-2.7&#10;&#9;&#9;C380.4,211.5,381.5,205.4,379.3,201.7z M377.6,212.9c-1.7,1.5-3.7,2.5-5.9,2.9c-2.2,0.7-4.4,0.7-6.6,0.2c-2.1-0.6-3.9-2-4.9-3.9&#10;&#9;&#9;c-1.1-2-1.7-4.1-1.8-6.4c0-2.7,2.3-4.5,4.3-5.9s4.6-2.7,7.3-2c0.1,0,0.2-0.1,0.3-0.2c0-0.1,0-0.1-0.1-0.2c0.7,0.1,1.5,0.3,2.2,0.5&#10;&#9;&#9;c2,0.4,3.9,1.3,5.5,2.6c1.5,1.6,2.2,3.8,2,5.9C380,208.9,379.1,211.2,377.6,212.9z"/>
	<path class="st9" d="M372.4,207c-0.3-1.8-1.7-3.3-3.5-3.6c0.5-0.3,1.1-0.5,1.6-0.7c0.3-0.1,0.1-0.5-0.1-0.4c-0.8,0.3-1.5,0.6-2.2,1&#10;&#9;&#9;l0,0c-0.1,0-0.2,0-0.2,0.1c-1.4,0.7-2.3,2-2.5,3.5c-0.2,2.1,1.9,3.8,3.9,3.9c1.7,0,3.1-1.3,3.1-3&#10;&#9;&#9;C372.5,207.5,372.5,207.2,372.4,207z M368.8,210.3c-1.9-0.4-3.5-2.1-2.8-4.1c0.4-1,1.2-1.9,2.2-2.4c1.7,0.1,3.2,1.2,3.7,2.8&#10;&#9;&#9;C372.5,208.7,371,210.8,368.8,210.3L368.8,210.3z"/>
	<path class="st9" d="M370.9,206.4c-0.4-0.9-1.6-0.7-2.1-1.4c-0.2-0.2-0.5,0.1-0.3,0.3c0.3,0.3,0.7,0.5,1.1,0.6&#10;&#9;&#9;c0.3,0.1,0.5,0.2,0.7,0.3c-0.1,0-0.2,0-0.3,0.1c0,0,0,0,0,0l-0.2,0.8c0,0.1,0,0.2,0.1,0.2c0.4,0.1,0.8-0.1,1-0.5&#10;&#9;&#9;C370.9,206.8,370.9,206.6,370.9,206.4z M370.3,207l0.1-0.5c0,0,0-0.1,0-0.1c0,0.1,0.1,0.1,0.1,0.2C370.5,206.8,370.4,207,370.3,207&#10;&#9;&#9;L370.3,207z"/>
	<polygon class="st7" points="350.3,212.3 374.7,226.3 393.1,215.7 393.1,197.4 373.3,186 364.2,190.9 &#9;"/>
	<polygon class="st7" points="393.1,197.4 384.3,202.5 374.7,226.3 393.1,215.7 &#9;"/>
	<polygon class="st12" points="350.3,212.3 374.7,226.3 393.1,215.7 393.1,197.4 373.3,186 364.2,190.9 &#9;"/>
	<polygon class="st13" points="393.1,197.4 384.3,202.5 374.7,226.3 393.1,215.7 &#9;"/>
	<polygon class="st7" points="384.3,202.5 364.2,190.9 350.3,212.3 374.7,226.3 &#9;"/>
	<ellipse class="st0" cx="368.8" cy="208" rx="8.3" ry="8.1"/>
	<ellipse transform="matrix(0.6447 -0.7645 0.7645 0.6447 -27.4557 350.1919)" class="st9" cx="363" cy="204.6" rx="1.1" ry="1"/>
	<ellipse transform="matrix(0.4983 -0.867 0.867 0.4983 6.3689 417.081)" class="st9" cx="363.6" cy="203" rx="1.1" ry="1"/>
	<ellipse transform="matrix(0.6447 -0.7645 0.7645 0.6447 -23.9549 352.6764)" class="st9" cx="367.4" cy="202.1" rx="1.1" ry="1"/>
	<ellipse transform="matrix(0.5 -0.866 0.866 0.5 8.68 418.9571)" class="st9" cx="367.2" cy="202" rx="1.1" ry="1"/>
	<ellipse transform="matrix(0.6447 -0.7645 0.7645 0.6447 -22.769 356.2297)" class="st9" cx="371.8" cy="202.6" rx="1.1" ry="1"/>
	<ellipse transform="matrix(0.5 -0.866 0.866 0.5 10.4639 423.0286)" class="st9" cx="371.6" cy="202.5" rx="1.1" ry="1"/>
	<ellipse transform="matrix(0.6447 -0.7645 0.7645 0.6447 -25.053 360.0541)" class="st9" cx="374.8" cy="207" rx="1.1" ry="1"/>
	<ellipse transform="matrix(0.5 -0.866 0.866 0.5 8.148 427.7831)" class="st9" cx="374.5" cy="206.8" rx="1.1" ry="1"/>
	<ellipse transform="matrix(0.6447 -0.7645 0.7645 0.6447 -29.3524 360.7705)" class="st9" cx="373.4" cy="212" rx="1.1" ry="1"/>
	<ellipse transform="matrix(0.5 -0.866 0.866 0.5 3.1508 429.078)" class="st9" cx="373.2" cy="211.8" rx="1.1" ry="1"/>
	<ellipse transform="matrix(0.6447 -0.7645 0.7645 0.6447 -31.3828 351.9093)" class="st9" cx="362.9" cy="209.7" rx="1.1" ry="1"/>
	<ellipse transform="matrix(0.5 -0.866 0.866 0.5 -0.1774 418.8291)" class="st9" cx="362.6" cy="209.6" rx="1.1" ry="1"/>
	<ellipse transform="matrix(0.6447 -0.7645 0.7645 0.6447 -32.254 356.8306)" class="st9" cx="367.7" cy="213.1" rx="1.1" ry="1"/>
	<ellipse transform="matrix(0.5 -0.866 0.866 0.5 -0.6833 424.7124)" class="st9" cx="367.5" cy="212.9" rx="1.1" ry="1"/>
	<path class="st9" d="M368.8,211.5c-2.2-0.1-3.9-1.9-3.9-4.1s1.9-3.9,4.1-3.9c2.2,0.1,3.9,1.8,3.9,4&#10;&#9;&#9;C372.9,209.8,371,211.5,368.8,211.5z M368.8,204.5c-1.7,0.1-2.9,1.5-2.9,3.1c0.1,1.7,1.5,2.9,3.1,2.9c1.6-0.1,2.9-1.4,2.9-3&#10;&#9;&#9;C371.9,205.8,370.5,204.4,368.8,204.5C368.8,204.5,368.8,204.5,368.8,204.5L368.8,204.5z"/>
	<path class="st7" d="M359.3,183.9c0,0,5-6.4,12-3.4s17.6,8.1,20.5,11s3.4,9.5,3.4,10.9c0,0-7.7-4.7-8.6-7.1c-1-2.4-2.7-4.3-4.9-5.7&#10;&#9;&#9;c-1.6-0.8-13.3-6.2-14.4-5.8S359.3,183.9,359.3,183.9z"/>
	<path class="st7" d="M385.2,206.1l0.3-0.2c0.1-0.1,0.1-0.3,0-0.4c-0.1-0.1-0.2-0.1-0.3-0.1l-0.3,0.2c-0.1,0.1-0.2,0.2-0.1,0.4&#10;&#9;&#9;S385.1,206.2,385.2,206.1z"/>
	<path class="st7" d="M354.6,193.4c-0.7-0.7-0.9-1.8-0.4-2.6c0.6-1.2,1.3-2.3,2-3.4c2.5-3.9,7-6.7,11.9-6c4.6,0.7,9.1,2.9,13.2,5&#10;&#9;&#9;c17.8,9.2,13.8,19.6,13.3,20.6s-0.1,4.4-5.4,3.3s-6.1-5.3-5.6-6.4s3.3-5.2,1.2-7.3s-15-8.5-16.4-7.9s-3.1,5.1-3.1,5.7&#10;&#9;&#9;S359.9,198.7,354.6,193.4z"/>
	<path class="st7" d="M365.1,194.4c0-0.5-0.1-1.1-0.4-1.5c-1.6-2.5-4.9-3.5-7.7-3.6c-1.4,0-2.7,0.4-2.9,2c-0.4,3.2,2.4,5,5.1,5.4&#10;&#9;&#9;c1.2,0.2,2.4,0.2,3.5-0.1c1-0.2,1.9-0.8,2.3-1.7C365,194.8,365.1,194.6,365.1,194.4z"/>
	<path class="st7" d="M394.3,207.9c0-0.5-0.1-1.1-0.4-1.5c-1.6-2.5-4.9-3.5-7.7-3.6c-1.4,0-2.7,0.4-2.9,2c-0.4,3.2,2.4,5,5.1,5.4&#10;&#9;&#9;c1.2,0.2,2.4,0.2,3.5-0.1c1-0.2,1.9-0.8,2.3-1.7C394.3,208.3,394.3,208.1,394.3,207.9z"/>
	<path class="st14" d="M365.1,194.4c0-0.5-0.1-1.1-0.4-1.5c-1.6-2.5-4.9-3.5-7.7-3.6c-1.4,0-2.7,0.4-2.9,2c-0.4,3.2,2.4,5,5.1,5.4&#10;&#9;&#9;c1.2,0.2,2.4,0.2,3.5-0.1c1-0.2,1.9-0.8,2.3-1.7C365,194.8,365.1,194.6,365.1,194.4z"/>
	<path class="st14" d="M394.3,207.9c0-0.5-0.1-1.1-0.4-1.5c-1.6-2.5-4.9-3.5-7.7-3.6c-1.4,0-2.7,0.4-2.9,2c-0.4,3.2,2.4,5,5.1,5.4&#10;&#9;&#9;c1.2,0.2,2.4,0.2,3.5-0.1c1-0.2,1.9-0.8,2.3-1.7C394.3,208.3,394.3,208.1,394.3,207.9z"/>
	<polygon class="st15" points="249.9,295.8 278.5,278.7 244.9,258.9 215.4,275.9 &#9;"/>
	<polygon class="st7" points="262.4,294.5 291.1,277.4 257.4,257.6 228,274.6 &#9;"/>
	<polygon class="st15" points="210.7,263.4 216.4,267.2 247.6,249.3 241.6,245.6 &#9;"/>
	<path class="st15" d="M267.7,187l62-35.8c1.6-0.9,3.6-0.4,4.5,1.2c0.3,0.5,0.4,1.1,0.4,1.6v47.4c0,1.9-1,3.6-2.6,4.5l-61.1,34.5&#10;&#9;&#9;c-1.8,1.1-4.2,0.5-5.3-1.3c-0.4-0.6-0.6-1.3-0.6-2v-45.4C265,189.8,266,188,267.7,187z"/>
	<polyline class="st15" points="298.4,216.9 298.4,237.1 312.5,229.6 312.5,209.7 &#9;"/>
	
		<ellipse transform="matrix(0.8979 -0.4403 0.4403 0.8979 -72.1718 156.9328)" class="st15" cx="302.2" cy="234" rx="23.9" ry="5.7"/>
</g>
<g id="_24_7">
	<path class="st7" d="M281.6,95v43l53.4-30.8c4-2.3,6.4-6.4,6.6-11l0.8-33.9c0.1-2.8-2.2-5.2-5-5.2c-0.9,0-1.9,0.2-2.7,0.7&#10;&#9;&#9;l-47.4,27.3C283.8,87.1,281.6,90.9,281.6,95z"/>
	<polyline class="st7" points="281.6,138 281.6,153.2 295.6,126.5 &#9;"/>
	<path class="st9" d="M296.7,95.7c2.4-1.3,3.8,0,3.7,3.2c-0.1,1.7-0.4,3.4-1.1,5l-3.1,7.6l4.4-2.5v3.1l-8,4.5v-1.3l4.6-11&#10;&#9;&#9;c0.6-1.2,0.9-2.5,1-3.9c0-1.5-0.5-2.1-1.5-1.6c-1.1,0.8-1.7,2-1.6,3.3l-2.1,0.6c0.1-1.5,0.4-2.9,1.1-4.2&#10;&#9;&#9;C294.6,97.4,295.5,96.4,296.7,95.7z"/>
	<path class="st9" d="M309.9,100.4l1.4-0.8v3.1l-1.4,0.8v3.4l-2.3,1.3v-3.4l-5.4,3v-1.6l5.4-16.3l2.4-1.3L309.9,100.4z M307.6,101.7&#10;&#9;&#9;l0-7l-2.7,8.6L307.6,101.7"/>
	<polygon class="st9" points="323,79.8 315,105.3 312.8,106.5 320.8,81 &#9;"/>
	<polygon class="st9" points="332.3,75.9 332.3,77.3 327.5,97 325.2,98.3 329.6,80.4 324.7,83.2 324.7,80.2 &#9;"/>
</g>
<g id="plant">
	
		<linearGradient id="SVGID_00000128449963585616581930000010556532404427452347_" gradientUnits="userSpaceOnUse" x1="69.4211" y1="173.5689" x2="87.0311" y2="190.6589" gradientTransform="matrix(1 0 0 -1 0 502)">
		<stop offset="0" style="stop-color:#FFBE30;stop-opacity:0"/>
		<stop offset="1" style="stop-color:#56403D"/>
	</linearGradient>
	<path style="opacity:0.32;fill:url(#SVGID_00000128449963585616581930000010556532404427452347_);enable-background:new    ;" d="&#10;&#9;&#9;M73.7,336.4l42.2-23.9l-26.5-15l-42.5,23.6C55.9,326.1,64.8,331.3,73.7,336.4z"/>
	<polyline class="st3" points="84.2,286.5 84.2,307.5 118.2,307.5 118.2,286.5 &#9;"/>
	<ellipse class="st15" cx="101.2" cy="286.5" rx="17" ry="8.4"/>
	<ellipse class="st3" cx="101.2" cy="308.3" rx="17" ry="8.4"/>
	<path class="st1" d="M120.2,237.6c-3.6-1.5-8.6-6.4-12.9-6.2c-1.6,4.1-2.1,8.8-2.6,12.9c-0.8,7.2-1,14.4-0.5,21.5&#10;&#9;&#9;c0.1,1.6,0.2,3.2,0.4,4.8c0.1,0.5,0.2,1,0.4,1.4v16.6c0,0.3,0.2,0.5,0.5,0.5c0.3,0,0.5-0.2,0.5-0.5v-16c1.7-0.6,3.3-1.3,4.9-2.2&#10;&#9;&#9;c3.2-2,5.6-5,6.9-8.6c2.8-7.6,1-16.2,3.6-23.8C121,237.8,120.6,237.7,120.2,237.6z"/>
	<path class="st17" d="M112.9,225c-2,1.2-3.7,2.9-4.9,5c-0.3,0.5-0.6,1-0.8,1.5c-0.1,0.1-0.1,0.2-0.1,0.3l0,0&#10;&#9;&#9;c-0.3,0.9-0.6,1.7-0.8,2.6c0.4-0.7,1-1.2,1.8-1.4c0.9-0.4,1.9-0.5,2.8-0.3c0.9,0.4,1.8,0.8,2.6,1.4c1.2,0.7,2.4,1.6,3.6,2.3&#10;&#9;&#9;c5.6,3.6,13.2,4,17.5-1.3c0.1-0.2,0.1-0.4,0.1-0.6C135.4,231,125.3,217.8,112.9,225z"/>
	<path class="st1" d="M132.1,237.4l0.7-0.5c0-0.1,0-0.3-0.1-0.4c-3.4-3.5-7.1-6.9-11.7-8.7c-3.3-1.3-7-1.6-10.5-1&#10;&#9;&#9;c-0.4,0.4-0.7,0.9-1.1,1.4c3.8-1.3,8.6-0.5,12,1c4.1,1.8,7.4,4.9,10.5,8.1C131.9,237.4,132,237.4,132.1,237.4z"/>
	<path class="st1" d="M75,245c-5,2.6-8,8-7.6,13.6c0.4,10,16.9,0.2,21.3-8.2s5.1,3.6,5.1,3.6"/>
	<path class="st17" d="M89.9,241.5c-3.1,0-6.2,0.4-9.2,1.3c-2,0.5-3.9,1.2-5.7,2.2c1,0.7,2.2,1.3,3.3,1.8c2.1,0.8,4.2,1.9,5.3,3.8&#10;&#9;&#9;c0.3,0.5,0.5,1,0.6,1.5c1,3.3,0.1,7.3,1.5,10.6c1.4,3.5,4.1,6.3,8,6.5c4.7,0.3,6.8-4.2,7.7-8.1s2.2-9.2,0.7-13.1&#10;&#9;&#9;C100.5,243.4,94.3,241.7,89.9,241.5z"/>
	<path class="st1" d="M96,257.2c-2-6.4-6.1-12.3-12.2-15.1h-0.2c-0.1,0-0.2,0.1-0.3,0.1c-0.4,0.1-0.7,0.2-1.1,0.3&#10;&#9;&#9;c7.1,2.6,11.5,9.6,13.3,16.7c2.3,9.1,1.5,19,1.6,28.3c0,0.3,0.2,0.5,0.5,0.5s0.5-0.2,0.5-0.5C98.1,277.5,99,266.8,96,257.2z"/>
</g>
</svg>