<?xml version="1.0" encoding="UTF-8"?>
<!DOCTYPE svg PUBLIC "-//W3C//DTD SVG 1.1//EN" "http://www.w3.org/Graphics/SVG/1.1/DTD/svg11.dtd">
<svg xmlns="http://www.w3.org/2000/svg" version="1.1" width="183px" height="141px" style="shape-rendering:geometricPrecision; text-rendering:geometricPrecision; image-rendering:optimizeQuality; fill-rule:evenodd; clip-rule:evenodd" xmlns:xlink="http://www.w3.org/1999/xlink">
<g><path style="opacity:0.167" fill="#e3dad4" d="M 87.5,19.5 C 81.8236,19.3339 76.1569,19.5006 70.5,20C 69.2721,21.4902 69.2721,22.9902 70.5,24.5C 69.3509,24.2089 68.6842,23.3756 68.5,22C 68.4733,19.36 69.8066,18.0266 72.5,18C 77.6747,17.8507 82.6747,18.3507 87.5,19.5 Z"/></g>
<g><path style="opacity:0.994" fill="#aba099" d="M 87.5,19.5 C 87.8333,19.5 88.1667,19.5 88.5,19.5C 88.762,20.9778 88.4287,22.3112 87.5,23.5C 84.4701,24.1686 81.4701,24.8353 78.5,25.5C 78.5654,25.0618 78.3988,24.7284 78,24.5C 76.3743,25.9555 75.2076,27.6221 74.5,29.5C 74.5,27.8333 74.5,26.1667 74.5,24.5C 73.1667,24.5 71.8333,24.5 70.5,24.5C 69.2721,22.9902 69.2721,21.4902 70.5,20C 76.1569,19.5006 81.8236,19.3339 87.5,19.5 Z"/></g>
<g><path style="opacity:0.467" fill="#c8c0bd" d="M 111.5,32.5 C 111.5,31.1667 111.5,29.8333 111.5,28.5C 110.167,28.5 108.833,28.5 107.5,28.5C 110.151,25.639 112.151,26.139 113.5,30C 113.361,31.301 112.695,32.1344 111.5,32.5 Z"/></g>
<g><path style="opacity:0.949" fill="#b0a5a2" d="M 107.5,28.5 C 108.833,28.5 110.167,28.5 111.5,28.5C 111.5,29.8333 111.5,31.1667 111.5,32.5C 110.109,34.8903 108.109,36.5569 105.5,37.5C 105.167,37.5 104.833,37.5 104.5,37.5C 104.34,35.847 103.674,34.5137 102.5,33.5C 104.36,32.0613 106.027,30.3947 107.5,28.5 Z"/></g>
<g><path style="opacity:0.988" fill="#aaa098" d="M 78.5,25.5 C 78.8195,30.3633 78.4861,35.03 77.5,39.5C 75.955,40.2297 75.1216,41.563 75,43.5C 74.6667,42.8333 74.3333,42.1667 74,41.5C 73.7679,42.7375 73.2679,43.7375 72.5,44.5C 73.0851,39.4855 73.7518,34.4855 74.5,29.5C 75.2076,27.6221 76.3743,25.9555 78,24.5C 78.3988,24.7284 78.5654,25.0618 78.5,25.5 Z"/></g>
<g><path style="opacity:0.195" fill="#e2d8d2" d="M 88.5,19.5 C 89.807,21.2232 89.807,23.0565 88.5,25C 85.905,25.2256 83.405,25.7256 81,26.5C 78.3855,51.7664 74.8855,76.7664 70.5,101.5C 70.9484,94.81 71.6151,88.1433 72.5,81.5C 73.2653,78.9039 73.5987,76.2372 73.5,73.5C 74.3949,65.6071 75.3949,57.6071 76.5,49.5C 77.3242,46.2356 77.6576,42.9023 77.5,39.5C 78.4861,35.03 78.8195,30.3633 78.5,25.5C 81.4701,24.8353 84.4701,24.1686 87.5,23.5C 88.4287,22.3112 88.762,20.9778 88.5,19.5 Z"/></g>
<g><path style="opacity:0.1" fill="#e2d9d1" d="M 70.5,24.5 C 71.8333,24.5 73.1667,24.5 74.5,24.5C 74.5,26.1667 74.5,27.8333 74.5,29.5C 73.7518,34.4855 73.0851,39.4855 72.5,44.5C 71.9084,47.1272 71.5751,49.7938 71.5,52.5C 71.1667,52.5 70.8333,52.5 70.5,52.5C 71.5661,43.5057 72.5661,34.5057 73.5,25.5C 72.209,25.7373 71.209,25.404 70.5,24.5 Z"/></g>
<g><path style="opacity:0.94" fill="#a99d98" d="M 102.5,33.5 C 103.674,34.5137 104.34,35.847 104.5,37.5C 101.167,39.1587 99.5003,41.8254 99.5,45.5C 98.1667,45.5 96.8333,45.5 95.5,45.5C 94.4891,43.5976 94.3224,41.5976 95,39.5C 97.4392,37.3714 99.9392,35.3714 102.5,33.5 Z"/></g>
<g><path style="opacity:0.137" fill="#ddd4ce" d="M 107.5,28.5 C 106.027,30.3947 104.36,32.0613 102.5,33.5C 99.9392,35.3714 97.4392,37.3714 95,39.5C 94.3224,41.5976 94.4891,43.5976 95.5,45.5C 96.2436,49.1185 96.577,52.7852 96.5,56.5C 94.2753,50.8016 93.4419,44.8016 94,38.5C 98.1144,34.5391 102.614,31.2058 107.5,28.5 Z"/></g>
<g><path style="opacity:0.086" fill="#e2d6d1" d="M 104.5,37.5 C 104.833,37.5 105.167,37.5 105.5,37.5C 101.992,40.2827 100.658,43.9494 101.5,48.5C 100.833,47.5 100.167,46.5 99.5,45.5C 99.5003,41.8254 101.167,39.1587 104.5,37.5 Z"/></g>
<g><path style="opacity:0.978" fill="#a79d96" d="M 77.5,39.5 C 77.6576,42.9023 77.3242,46.2356 76.5,49.5C 75.8368,53.5655 74.6701,57.5655 73,61.5C 71.7114,58.6492 71.2114,55.6492 71.5,52.5C 71.5751,49.7938 71.9084,47.1272 72.5,44.5C 73.2679,43.7375 73.7679,42.7375 74,41.5C 74.3333,42.1667 74.6667,42.8333 75,43.5C 75.1216,41.563 75.955,40.2297 77.5,39.5 Z"/></g>
<g><path style="opacity:0.995" fill="#aa9f99" d="M 95.5,45.5 C 96.8333,45.5 98.1667,45.5 99.5,45.5C 100.167,46.5 100.833,47.5 101.5,48.5C 100.413,53.2269 102.08,56.2269 106.5,57.5C 104.485,58.9238 102.152,59.5905 99.5,59.5C 97.5,59.5 96.5,58.5 96.5,56.5C 96.577,52.7852 96.2436,49.1185 95.5,45.5 Z"/></g>
<g><path style="opacity:0.965" fill="#aaa09c" d="M 128.5,49.5 C 129.833,49.5 131.167,49.5 132.5,49.5C 132.5,50.8333 132.5,52.1667 132.5,53.5C 131.5,53.5 130.5,53.5 129.5,53.5C 129.5,54.8333 129.5,56.1667 129.5,57.5C 128.421,59.543 126.754,60.8763 124.5,61.5C 124.167,61.5 123.833,61.5 123.5,61.5C 123.607,59.6214 123.107,59.2881 122,60.5C 121.583,59.244 120.75,58.5774 119.5,58.5C 122.806,55.8605 125.806,52.8605 128.5,49.5 Z"/></g>
<g><path style="opacity:0.745" fill="#c9bfbe" d="M 128.5,49.5 C 129.946,48.3871 131.613,48.2204 133.5,49C 134.825,52.8994 133.492,55.7327 129.5,57.5C 129.5,56.1667 129.5,54.8333 129.5,53.5C 130.5,53.5 131.5,53.5 132.5,53.5C 132.5,52.1667 132.5,50.8333 132.5,49.5C 131.167,49.5 129.833,49.5 128.5,49.5 Z"/></g>
<g><path style="opacity:0.987" fill="#afa49c" d="M 76.5,49.5 C 75.3949,57.6071 74.3949,65.6071 73.5,73.5C 72.8025,70.5722 72.6358,67.5722 73,64.5C 72.3333,68.5 71.6667,68.5 71,64.5C 70.8446,66.856 70.8446,69.1893 71,71.5C 70.7216,70.5842 70.2216,69.9175 69.5,69.5C 69.8333,64.1667 70.1667,58.8333 70.5,53.5C 70.5,53.1667 70.5,52.8333 70.5,52.5C 70.8333,52.5 71.1667,52.5 71.5,52.5C 71.2114,55.6492 71.7114,58.6492 73,61.5C 74.6701,57.5655 75.8368,53.5655 76.5,49.5 Z"/></g>
<g><path style="opacity:0.98" fill="#b2a7a3" d="M 106.5,57.5 C 110.002,58.9175 113.669,59.5842 117.5,59.5C 116.048,60.3019 114.382,60.8019 112.5,61C 111.748,61.6708 111.414,62.5041 111.5,63.5C 109.958,62.6993 108.292,62.366 106.5,62.5C 103.759,62.2927 101.426,61.2927 99.5,59.5C 102.152,59.5905 104.485,58.9238 106.5,57.5 Z"/></g>
<g><path style="opacity:0.127" fill="#ddd2cd" d="M 101.5,48.5 C 102.039,51.0416 103.372,53.2082 105.5,55C 108.505,56.1697 111.505,57.3364 114.5,58.5C 119.524,55.992 124.191,52.992 128.5,49.5C 125.806,52.8605 122.806,55.8605 119.5,58.5C 118.508,58.3284 117.842,58.6618 117.5,59.5C 113.669,59.5842 110.002,58.9175 106.5,57.5C 102.08,56.2269 100.413,53.2269 101.5,48.5 Z"/></g>
<g><path style="opacity:0.259" fill="#dccfcb" d="M 70.5,53.5 C 70.1667,58.8333 69.8333,64.1667 69.5,69.5C 68.6758,72.7644 68.3424,76.0977 68.5,79.5C 67.8333,80.8333 67.1667,82.1667 66.5,83.5C 67.4477,73.311 68.781,63.311 70.5,53.5 Z"/></g>
<g><path style="opacity:0.996" fill="#a99b98" d="M 119.5,58.5 C 120.75,58.5774 121.583,59.244 122,60.5C 123.107,59.2881 123.607,59.6214 123.5,61.5C 119.935,64.5386 115.935,65.2053 111.5,63.5C 111.414,62.5041 111.748,61.6708 112.5,61C 114.382,60.8019 116.048,60.3019 117.5,59.5C 117.842,58.6618 118.508,58.3284 119.5,58.5 Z"/></g>
<g><path style="opacity:0.286" fill="#d7cac7" d="M 123.5,61.5 C 123.833,61.5 124.167,61.5 124.5,61.5C 122.54,64.1545 119.873,65.8211 116.5,66.5C 112.862,65.6724 109.529,64.339 106.5,62.5C 108.292,62.366 109.958,62.6993 111.5,63.5C 115.935,65.2053 119.935,64.5386 123.5,61.5 Z"/></g>
<g><path style="opacity:0.955" fill="#a69b95" d="M 73.5,73.5 C 73.5987,76.2372 73.2653,78.9039 72.5,81.5C 71.7784,81.9175 71.2784,82.5842 71,83.5C 70.8784,81.563 70.045,80.2297 68.5,79.5C 68.3424,76.0977 68.6758,72.7644 69.5,69.5C 70.2216,69.9175 70.7216,70.5842 71,71.5C 70.8446,69.1893 70.8446,66.856 71,64.5C 71.6667,68.5 72.3333,68.5 73,64.5C 72.6358,67.5722 72.8025,70.5722 73.5,73.5 Z"/></g>
<g><path style="opacity:0.929" fill="#ada29e" d="M 68.5,79.5 C 70.045,80.2297 70.8784,81.563 71,83.5C 71.2784,82.5842 71.7784,81.9175 72.5,81.5C 71.6151,88.1433 70.9484,94.81 70.5,101.5C 69.8333,102.833 69.1667,104.167 68.5,105.5C 67.5651,102.887 67.3985,100.221 68,97.5C 68.3333,98.5 68.6667,99.5 69,100.5C 69.6667,97.8333 69.6667,95.1667 69,92.5C 68.3333,96.5 67.6667,96.5 67,92.5C 66.5939,95.7422 65.7605,98.7422 64.5,101.5C 64.5,100.5 64.5,99.5 64.5,98.5C 65.0582,93.4843 65.7249,88.4843 66.5,83.5C 67.1667,82.1667 67.8333,80.8333 68.5,79.5 Z"/></g>
<g><path style="opacity:0.11" fill="#d5d0c7" d="M 118.5,95.5 C 119.964,94.8401 121.631,94.5068 123.5,94.5C 126.486,94.3817 129.152,95.0483 131.5,96.5C 130.833,96.5 130.167,96.5 129.5,96.5C 126.57,95.701 123.57,95.3677 120.5,95.5C 119.833,95.5 119.167,95.5 118.5,95.5 Z"/></g>
<g><path style="opacity:0.967" fill="#a79c94" d="M 120.5,95.5 C 123.57,95.3677 126.57,95.701 129.5,96.5C 130.398,97.1577 131.398,97.8243 132.5,98.5C 131.613,99.9732 130.613,101.306 129.5,102.5C 128.618,100.616 127.118,99.2829 125,98.5C 122.153,98.9053 119.32,99.2386 116.5,99.5C 116.389,98.8826 116.056,98.3826 115.5,98C 117.653,97.9005 119.319,97.0672 120.5,95.5 Z"/></g>
<g><path style="opacity:0.278" fill="#d2c4be" d="M 114.5,97.5 C 113.542,98.9616 112.376,100.295 111,101.5C 110.51,102.793 110.343,104.127 110.5,105.5C 111.833,105.5 113.167,105.5 114.5,105.5C 111.932,107.924 109.932,107.257 108.5,103.5C 109.544,100.455 111.544,98.4554 114.5,97.5 Z"/></g>
<g><path style="opacity:0.967" fill="#ada199" d="M 118.5,95.5 C 119.167,95.5 119.833,95.5 120.5,95.5C 119.319,97.0672 117.653,97.9005 115.5,98C 116.056,98.3826 116.389,98.8826 116.5,99.5C 116.5,101.167 116.5,102.833 116.5,104.5C 116.158,105.338 115.492,105.672 114.5,105.5C 113.167,105.5 111.833,105.5 110.5,105.5C 110.343,104.127 110.51,102.793 111,101.5C 112.376,100.295 113.542,98.9616 114.5,97.5C 115.514,96.3263 116.847,95.6596 118.5,95.5 Z"/></g>
<g><path style="opacity:0.901" fill="#b6a69e" d="M 129.5,102.5 C 124.929,102.054 120.596,102.72 116.5,104.5C 116.5,102.833 116.5,101.167 116.5,99.5C 119.32,99.2386 122.153,98.9053 125,98.5C 127.118,99.2829 128.618,100.616 129.5,102.5 Z"/></g>
<g><path style="opacity:0.927" fill="#b6aba4" d="M 136.5,99.5 C 139.243,101.239 141.243,103.573 142.5,106.5C 142.5,108.167 142.5,109.833 142.5,111.5C 142.167,111.5 141.833,111.5 141.5,111.5C 142.036,108.335 141.203,105.669 139,103.5C 136.366,106.505 135.866,109.838 137.5,113.5C 137.795,115.735 137.461,117.735 136.5,119.5C 136.802,116.941 136.468,114.607 135.5,112.5C 135.5,111.5 135.5,110.5 135.5,109.5C 135.528,107.418 134.861,105.584 133.5,104C 134.399,102.348 135.399,100.848 136.5,99.5 Z"/></g>
<g><path style="opacity:0.92" fill="#b8aba2" d="M 129.5,96.5 C 130.167,96.5 130.833,96.5 131.5,96.5C 133.674,96.7497 135.341,97.7497 136.5,99.5C 135.399,100.848 134.399,102.348 133.5,104C 134.861,105.584 135.528,107.418 135.5,109.5C 133.727,106.94 131.727,104.607 129.5,102.5C 130.613,101.306 131.613,99.9732 132.5,98.5C 131.398,97.8243 130.398,97.1577 129.5,96.5 Z"/></g>
<g><path style="opacity:0.18" fill="#dccfcc" d="M 64.5,98.5 C 64.5,99.5 64.5,100.5 64.5,101.5C 63.8505,103.435 63.5172,105.435 63.5,107.5C 62.8333,108.5 62.1667,109.5 61.5,110.5C 61.8984,106.239 62.8984,102.239 64.5,98.5 Z"/></g>
<g><path style="opacity:1" fill="#a79996" d="M 68.5,105.5 C 68.4828,107.565 68.1495,109.565 67.5,111.5C 66.1667,111.5 64.8333,111.5 63.5,111.5C 63.5,110.167 63.5,108.833 63.5,107.5C 63.5172,105.435 63.8505,103.435 64.5,101.5C 65.7605,98.7422 66.5939,95.7422 67,92.5C 67.6667,96.5 68.3333,96.5 69,92.5C 69.6667,95.1667 69.6667,97.8333 69,100.5C 68.6667,99.5 68.3333,98.5 68,97.5C 67.3985,100.221 67.5651,102.887 68.5,105.5 Z"/></g>
<g><path style="opacity:0.137" fill="#dad2cc" d="M 70.5,101.5 C 70.4797,107.067 69.313,112.4 67,117.5C 66.6232,118.942 65.7899,119.942 64.5,120.5C 65.2163,117.402 66.2163,114.402 67.5,111.5C 68.1495,109.565 68.4828,107.565 68.5,105.5C 69.1667,104.167 69.8333,102.833 70.5,101.5 Z"/></g>
<g><path style="opacity:1" fill="#a69c94" d="M 141.5,111.5 C 141.62,118.129 140.287,118.795 137.5,113.5C 135.866,109.838 136.366,106.505 139,103.5C 141.203,105.669 142.036,108.335 141.5,111.5 Z"/></g>
<g><path style="opacity:0.986" fill="#a89d96" d="M 63.5,107.5 C 63.5,108.833 63.5,110.167 63.5,111.5C 64.8333,111.5 66.1667,111.5 67.5,111.5C 66.2163,114.402 65.2163,117.402 64.5,120.5C 62.8333,121.833 61.1667,123.167 59.5,124.5C 59.2865,122.856 59.6198,121.356 60.5,120C 59.552,119.517 58.552,119.351 57.5,119.5C 59.7823,116.896 61.1157,113.896 61.5,110.5C 62.1667,109.5 62.8333,108.5 63.5,107.5 Z"/></g>
<g><path style="opacity:0.995" fill="#aca299" d="M 141.5,111.5 C 141.833,111.5 142.167,111.5 142.5,111.5C 143.441,116.07 143.774,120.737 143.5,125.5C 143.672,126.492 143.338,127.158 142.5,127.5C 141.833,127.5 141.167,127.5 140.5,127.5C 141.231,125.401 141.231,123.401 140.5,121.5C 139.808,120.975 139.308,120.308 139,119.5C 138.583,120.756 137.75,121.423 136.5,121.5C 136.5,120.833 136.5,120.167 136.5,119.5C 137.461,117.735 137.795,115.735 137.5,113.5C 140.287,118.795 141.62,118.129 141.5,111.5 Z"/></g>
<g><path style="opacity:0.239" fill="#d9cfcb" d="M 61.5,110.5 C 61.1157,113.896 59.7823,116.896 57.5,119.5C 56.2921,120.234 54.9587,120.567 53.5,120.5C 57.1169,117.936 59.7836,114.603 61.5,110.5 Z"/></g>
<g><path style="opacity:0.122" fill="#e4dcd4" d="M 142.5,106.5 C 143.984,110.054 144.651,113.888 144.5,118C 144.497,120.69 144.164,123.19 143.5,125.5C 143.774,120.737 143.441,116.07 142.5,111.5C 142.5,109.833 142.5,108.167 142.5,106.5 Z"/></g>
<g><path style="opacity:1" fill="#a89b93" d="M 140.5,127.5 C 140.631,128.376 140.298,129.043 139.5,129.5C 137.414,128.511 135.747,127.178 134.5,125.5C 135.674,124.486 136.34,123.153 136.5,121.5C 137.75,121.423 138.583,120.756 139,119.5C 139.308,120.308 139.808,120.975 140.5,121.5C 141.231,123.401 141.231,125.401 140.5,127.5 Z"/></g>
<g><path style="opacity:0.161" fill="#e2dcd2" d="M 53.5,120.5 C 53.1667,121.167 52.8333,121.833 52.5,122.5C 50.7028,123.73 48.7028,124.396 46.5,124.5C 48.6626,122.917 50.9959,121.584 53.5,120.5 Z"/></g>
<g><path style="opacity:1" fill="#a69b96" d="M 57.5,119.5 C 58.552,119.351 59.552,119.517 60.5,120C 59.6198,121.356 59.2865,122.856 59.5,124.5C 58.3915,125.29 57.0581,125.79 55.5,126C 56.7383,126.69 56.7383,127.19 55.5,127.5C 54.5,127.5 53.5,127.5 52.5,127.5C 52.5,125.833 52.5,124.167 52.5,122.5C 52.8333,121.833 53.1667,121.167 53.5,120.5C 54.9587,120.567 56.2921,120.234 57.5,119.5 Z"/></g>
<g><path style="opacity:0.173" fill="#e1d8d0" d="M 117.5,127.5 C 115.5,127.5 113.5,127.5 111.5,127.5C 109.189,125.932 106.522,125.098 103.5,125C 98.8452,124.501 94.1785,124.334 89.5,124.5C 86.0613,124.253 82.728,124.586 79.5,125.5C 74.9,125.28 70.5667,125.946 66.5,127.5C 64.901,127.232 63.5676,127.566 62.5,128.5C 62.1667,128.5 61.8333,128.5 61.5,128.5C 61.62,127.414 62.2867,126.747 63.5,126.5C 76.6809,123.469 90.0142,122.302 103.5,123C 108.373,124.237 113.04,125.737 117.5,127.5 Z"/></g>
<g><path style="opacity:0.529" fill="#dccec7" d="M 135.5,112.5 C 136.468,114.607 136.802,116.941 136.5,119.5C 136.5,120.167 136.5,120.833 136.5,121.5C 136.34,123.153 135.674,124.486 134.5,125.5C 134.167,125.5 133.833,125.5 133.5,125.5C 135.183,121.364 135.85,117.031 135.5,112.5 Z"/></g>
<g><path style="opacity:1" fill="#a9a097" d="M 52.5,122.5 C 52.5,124.167 52.5,125.833 52.5,127.5C 53.5,127.5 54.5,127.5 55.5,127.5C 55.5,127.833 55.5,128.167 55.5,128.5C 55.1583,129.338 54.4916,129.672 53.5,129.5C 51.2543,130.455 48.921,131.122 46.5,131.5C 46.0074,129.194 45.6741,126.861 45.5,124.5C 45.8333,124.5 46.1667,124.5 46.5,124.5C 48.7028,124.396 50.7028,123.73 52.5,122.5 Z"/></g>
<g><path style="opacity:0.878" fill="#cabdb5" d="M 64.5,120.5 C 62.7671,124.565 59.7671,127.232 55.5,128.5C 55.5,128.167 55.5,127.833 55.5,127.5C 56.7383,127.19 56.7383,126.69 55.5,126C 57.0581,125.79 58.3915,125.29 59.5,124.5C 61.1667,123.167 62.8333,121.833 64.5,120.5 Z"/></g>
<g><path style="opacity:0.98" fill="#ada099" d="M 89.5,124.5 C 88.3998,125.558 87.0664,126.392 85.5,127C 86.7839,127.684 87.9505,127.517 89,126.5C 89.6979,127.691 90.5313,128.691 91.5,129.5C 88.9039,130.265 86.2372,130.599 83.5,130.5C 82.1667,128.833 80.8333,127.167 79.5,125.5C 82.728,124.586 86.0613,124.253 89.5,124.5 Z"/></g>
<g><path style="opacity:0.889" fill="#a79b93" d="M 73.5,131.5 C 70.0336,133.092 66.3669,133.758 62.5,133.5C 62.5,131.833 62.5,130.167 62.5,128.5C 63.5676,127.566 64.901,127.232 66.5,127.5C 69.2186,127.603 71.8853,127.269 74.5,126.5C 75.1667,126.833 75.8333,127.167 76.5,127.5C 75.675,128.386 74.675,128.719 73.5,128.5C 73.5,129.5 73.5,130.5 73.5,131.5 Z"/></g>
<g><path style="opacity:1" fill="#a99b98" d="M 89.5,124.5 C 94.1785,124.334 98.8452,124.501 103.5,125C 106.522,125.098 109.189,125.932 111.5,127.5C 112.061,129.066 111.394,130.399 109.5,131.5C 103.606,130.044 97.6057,129.377 91.5,129.5C 90.5313,128.691 89.6979,127.691 89,126.5C 87.9505,127.517 86.7839,127.684 85.5,127C 87.0664,126.392 88.3998,125.558 89.5,124.5 Z"/></g>
<g><path style="opacity:1" fill="#aea299" d="M 79.5,125.5 C 80.8333,127.167 82.1667,128.833 83.5,130.5C 83.5,130.833 83.5,131.167 83.5,131.5C 83.1667,131.5 82.8333,131.5 82.5,131.5C 79.5,131.5 76.5,131.5 73.5,131.5C 73.5,130.5 73.5,129.5 73.5,128.5C 74.675,128.719 75.675,128.386 76.5,127.5C 75.8333,127.167 75.1667,126.833 74.5,126.5C 71.8853,127.269 69.2186,127.603 66.5,127.5C 70.5667,125.946 74.9,125.28 79.5,125.5 Z"/></g>
<g><path style="opacity:0.984" fill="#a99b96" d="M 111.5,127.5 C 113.5,127.5 115.5,127.5 117.5,127.5C 118.514,128.674 119.847,129.34 121.5,129.5C 125.311,130.645 129.311,130.812 133.5,130C 132.304,129.346 132.304,128.846 133.5,128.5C 134.833,129.5 134.833,130.5 133.5,131.5C 131.574,132.061 129.574,132.227 127.5,132C 128.973,132.71 129.64,133.876 129.5,135.5C 126.167,135.5 122.833,135.5 119.5,135.5C 116.5,134.833 113.5,134.167 110.5,133.5C 110.167,132.833 109.833,132.167 109.5,131.5C 111.394,130.399 112.061,129.066 111.5,127.5 Z"/></g>
<g><path style="opacity:0.102" fill="#ded2cd" d="M 117.5,127.5 C 121.466,128.162 125.466,128.495 129.5,128.5C 127.052,129.473 124.385,129.806 121.5,129.5C 119.847,129.34 118.514,128.674 117.5,127.5 Z"/></g>
<g><path style="opacity:0.573" fill="#cfc7c3" d="M 45.5,124.5 C 45.6741,126.861 46.0074,129.194 46.5,131.5C 48.921,131.122 51.2543,130.455 53.5,129.5C 48.8266,135.496 45.4933,134.829 43.5,127.5C 43.9424,126.261 44.6091,125.261 45.5,124.5 Z"/></g>
<g><path style="opacity:0.196" fill="#d8cdc9" d="M 91.5,129.5 C 97.6057,129.377 103.606,130.044 109.5,131.5C 109.833,132.167 110.167,132.833 110.5,133.5C 101.644,130.562 92.6444,129.896 83.5,131.5C 83.5,131.167 83.5,130.833 83.5,130.5C 86.2372,130.599 88.9039,130.265 91.5,129.5 Z"/></g>
<g><path style="opacity:0.965" fill="#b4a9a1" d="M 133.5,125.5 C 133.833,125.5 134.167,125.5 134.5,125.5C 135.747,127.178 137.414,128.511 139.5,129.5C 140.298,129.043 140.631,128.376 140.5,127.5C 141.167,127.5 141.833,127.5 142.5,127.5C 140.761,130.41 138.428,132.91 135.5,135C 133.564,135.813 131.564,136.313 129.5,136.5C 125.958,136.813 122.625,136.479 119.5,135.5C 122.833,135.5 126.167,135.5 129.5,135.5C 129.64,133.876 128.973,132.71 127.5,132C 129.574,132.227 131.574,132.061 133.5,131.5C 134.833,130.5 134.833,129.5 133.5,128.5C 132.304,128.846 132.304,129.346 133.5,130C 129.311,130.812 125.311,130.645 121.5,129.5C 124.385,129.806 127.052,129.473 129.5,128.5C 130.795,127.512 132.128,126.512 133.5,125.5 Z"/></g>
<g><path style="opacity:0.22" fill="#d1c8c2" d="M 61.5,128.5 C 61.8333,128.5 62.1667,128.5 62.5,128.5C 62.5,130.167 62.5,131.833 62.5,133.5C 66.3669,133.758 70.0336,133.092 73.5,131.5C 76.5,131.5 79.5,131.5 82.5,131.5C 76.6512,132.147 70.8179,133.48 65,135.5C 60.7351,134.607 59.5684,132.274 61.5,128.5 Z"/></g>
<g><path style="opacity:0.663" fill="#cfc2bf" d="M 110.5,133.5 C 113.5,134.167 116.5,134.833 119.5,135.5C 122.625,136.479 125.958,136.813 129.5,136.5C 126.024,137.643 122.358,137.81 118.5,137C 115.334,136.678 112.667,135.511 110.5,133.5 Z"/></g>
</svg>
